<svg xmlns="http://www.w3.org/2000/svg" width="33.738" height="33.738" viewBox="0 0 33.738 33.738">
  <g id="Subtraction_1" data-name="Subtraction 1" transform="translate(0 -5.263)" fill="#3146ed">
    <path d="M 17.00009918212891 38.00060272216797 C 12.72609901428223 38.00060272216797 8.708329200744629 36.33616256713867 5.686909198760986 33.31389236450195 C 2.66443943977356 30.29227066040039 0.9999994039535522 26.27450180053711 0.9999994039535522 22.00050163269043 C 0.9999994039535522 17.72650146484375 2.66443943977356 13.70873165130615 5.686709403991699 10.68731117248535 C 7.733713150024414 8.63971996307373 10.24279117584229 7.207106113433838 13.00039958953857 6.501197814941406 L 13.00039958953857 11.75375556945801 C 11.09947872161865 12.50105667114258 9.406901359558105 13.78896999359131 8.178849220275879 15.43514156341553 C 6.753569602966309 17.34573173522949 6.000199317932129 19.61599159240723 6.000199317932129 22.00050163269043 C 6.000199317932129 28.06587219238281 10.93472957611084 33.00040054321289 17.00009918212891 33.00040054321289 C 19.38460922241211 33.00040054321289 21.65486907958984 32.24703216552734 23.56544876098633 30.82175064086914 C 25.21162986755371 29.59369087219238 26.49953269958496 27.901123046875 27.24682426452637 26.00020217895508 L 32.49942398071289 26.00020217895508 C 31.79361343383789 28.75773429870605 30.36129379272461 31.26680564880371 28.31428909301758 33.31379318237305 C 25.29195976257324 36.33613204956055 21.27383995056152 38.00060272216797 17.00009918212891 38.00060272216797 Z M 32.20711898803711 17.00000190734863 L 26.79696655273438 17.00000190734863 C 25.74018669128418 14.93229675292969 24.0675163269043 13.25976276397705 21.99969863891602 12.20317840576172 L 21.99969863891602 6.793252468109131 C 24.36388397216797 7.569324493408203 26.52730178833008 8.900214195251465 28.31428909301758 10.68721103668213 C 30.10070610046387 12.47360992431641 31.4311580657959 14.63623332977295 32.20711898803711 17.00000190734863 Z" stroke="none"/>
    <path d="M 17.00009918212891 37.00060272216797 C 21.00672912597656 37.00060272216797 24.77372932434082 35.44013977050781 27.6071891784668 32.60668182373047 C 29.21254539489746 31.00134086608887 30.41452217102051 29.09354591369629 31.15189170837402 27.00020217895508 L 27.90646171569824 27.00020217895508 C 27.06821441650391 28.81448364257812 25.77271842956543 30.4227180480957 24.16338920593262 31.62328147888184 C 22.07876968383789 33.17840957641602 19.60174942016602 34.00040054321289 17.00009918212891 34.00040054321289 C 10.38332939147949 34.00040054321289 5.000199317932129 28.61727142333984 5.000199317932129 22.00050163269043 C 5.000199317932129 19.39886093139648 5.822189331054688 16.92183113098145 7.3773193359375 14.83720111846924 C 8.577866554260254 13.22788047790527 10.18611240386963 11.93237972259521 12.00039958953857 11.0941219329834 L 12.00039958953857 7.848782062530518 C 9.90703296661377 8.586286544799805 7.999214172363281 9.788561820983887 6.39371919631958 11.39451122283936 C 3.560379505157471 14.22705173492432 1.999999403953552 17.99366188049316 1.999999403953552 22.00050163269043 C 1.999999403953552 26.0073413848877 3.560379505157471 29.77395057678223 6.39410924911499 32.60688018798828 C 9.226649284362793 35.44021987915039 12.99325942993164 37.00060272216797 17.00009918212891 37.00060272216797 M 30.75606536865234 16.00000190734863 C 30.01092529296875 14.29584980010986 28.94560050964355 12.73271656036377 27.6071891784668 11.39431095123291 C 26.26824188232422 10.05537128448486 24.70430946350098 8.98956298828125 22.99969863891602 8.244253158569336 L 22.99969863891602 11.60897254943848 C 24.82582664489746 12.66340351104736 26.33650398254395 14.17397880554199 27.39110946655273 16.00000190734863 L 30.75606536865234 16.00000190734863 M 17.00009918212891 39.00060272216797 C 12.45893955230713 39.00060272216797 8.190009117126465 37.23211288452148 4.979699611663818 34.02090072631836 C 1.768489480018616 30.81059074401855 -5.731201326852897e-07 26.54166221618652 -5.731201326852897e-07 22.00050163269043 C -5.731201326852897e-07 17.45934104919434 1.768489480018616 13.19041156768799 4.979699611663818 9.980101585388184 C 7.459249496459961 7.499851226806641 10.57855987548828 5.86859130859375 14.00039958953857 5.262681484222412 L 14.00039958953857 12.46009159088135 C 12.01549911499023 13.0855016708374 10.23293972015381 14.35407161712646 8.980389595031738 16.03309059143066 C 7.684939384460449 17.76963233947754 7.000199317932129 19.83312225341797 7.000199317932129 22.00050163269043 C 7.000199317932129 27.51446151733398 11.48613929748535 32.00040054321289 17.00009918212891 32.00040054321289 C 19.16747856140137 32.00040054321289 21.2309684753418 31.31566047668457 22.96749877929688 30.02021217346191 C 24.64617919921875 28.76791191101074 25.91508865356445 26.9851016998291 26.54048919677734 25.00020217895508 L 33.73791885375977 25.00020217895508 C 33.13190841674805 28.42279052734375 31.50061988830566 31.54169082641602 29.02139854431152 34.02090072631836 C 25.81019020080566 37.23211288452148 21.54093933105469 39.00060272216797 17.00009918212891 39.00060272216797 Z M 33.5294189453125 18.00000190734863 L 26.16485023498535 18.00000190734863 C 25.15003967285156 15.68400096893311 23.31600952148438 13.85004138946533 20.99969863891602 12.83536148071289 L 20.99969863891602 5.470991611480713 C 24.02453994750977 6.1971116065979 26.79796981811523 7.75667142868042 29.02139854431152 9.980101585388184 C 31.24438858032227 12.20308113098145 32.80313873291016 14.97589111328125 33.52911758422852 17.99877166748047 L 33.5294189453125 18.00000190734863 Z" stroke="none" fill="#3146ed"/>
  </g>
</svg>
