<svg xmlns="http://www.w3.org/2000/svg" width="33.738" height="33.738" viewBox="0 0 33.738 33.738">
  <path id="Subtraction_3" data-name="Subtraction 3" d="M17,39A17,17,0,0,1,4.98,9.98,16.861,16.861,0,0,1,14,5.263v7.2a10.1,10.1,0,0,0-5.02,3.573A9.908,9.908,0,0,0,7,22,10.011,10.011,0,0,0,17,32a9.908,9.908,0,0,0,5.967-1.98A10.105,10.105,0,0,0,26.54,25h7.2A17.011,17.011,0,0,1,17,39ZM33.529,18H26.165A10.008,10.008,0,0,0,21,12.835V5.471A17.044,17.044,0,0,1,33.529,18Z" transform="translate(0 -5.263)" fill="#fff"/>
</svg>
