<svg xmlns="http://www.w3.org/2000/svg" width="408" height="412" viewBox="0 0 408 412">
  <g id="Group_30" data-name="Group 30" transform="translate(-737 -118)">
    <g id="Group_16" data-name="Group 16" transform="translate(0 51)">
      <rect id="Rectangle_17" data-name="Rectangle 17" width="366" height="366" transform="translate(779 113)" fill="#3146ed"/>
      <rect id="Rectangle_20" data-name="Rectangle 20" width="126" height="126" transform="translate(737 67)" fill="#f4f6f9"/>
      <rect id="Rectangle_21" data-name="Rectangle 21" width="76" height="76" transform="translate(769 100)" fill="#3146ed"/>
      <g id="Subtraction_2" data-name="Subtraction 2" transform="translate(882.131 217.868)" fill="#f4f6f9">
        <path d="M 80.48985290527344 164.0006103515625 C 59.25612258911133 164.0006103515625 39.29533386230469 155.7314300537109 24.28445816040039 140.7163696289062 C 9.269165992736816 125.7053146362305 0.9999991655349731 105.744499206543 0.9999991655349731 84.51072692871094 C 0.9999991655349731 63.2769775390625 9.269165992736816 43.31616592407227 24.28424835205078 28.30531120300293 C 35.59414291381836 16.99222755432129 49.75003433227539 9.45676326751709 65.28726959228516 6.46441125869751 L 65.28726959228516 38.61274337768555 C 55.97184753417969 41.7099723815918 47.62388610839844 47.74187088012695 41.71764373779297 55.65908432006836 C 35.45429229736328 64.05506134033203 32.14364624023438 74.03181457519531 32.14364624023438 84.51072692871094 C 32.14364624023438 111.1689376831055 53.8316650390625 132.8569641113281 80.48985290527344 132.8569641113281 C 90.96881103515625 132.8569641113281 100.9455413818359 129.5463104248047 109.3414764404297 123.282958984375 C 117.2587280273438 117.3766555786133 123.2906112670898 109.0287017822266 126.3877639770508 99.71333312988281 L 158.5362091064453 99.71333312988281 C 155.5441436767578 115.2499313354492 148.0101318359375 129.4058227539062 136.6996459960938 140.7162628173828 C 121.6845016479492 155.7313995361328 101.7221221923828 164.0006103515625 80.48985290527344 164.0006103515625 Z M 157.4715728759766 64.56968688964844 L 124.5307769775391 64.56968688964844 C 119.6643676757812 53.85507202148438 111.1417770385742 45.33330917358398 100.426643371582 40.46792221069336 L 100.426643371582 7.528058052062988 C 114.0843048095703 11.04287624359131 126.6035690307617 18.20915222167969 136.6996459960938 28.30520820617676 C 146.7923736572266 38.39789962768555 153.9569549560547 50.91443252563477 157.4715728759766 64.56968688964844 Z" stroke="none"/>
        <path d="M 80.4898681640625 163.0006256103516 C 101.4550476074219 163.0006256103516 121.166259765625 154.8354339599609 135.9925384521484 140.0091400146484 C 146.8716430664062 129.1300964355469 154.2122497558594 115.5858306884766 157.3157043457031 100.7133407592773 L 127.1033172607422 100.7133407592773 C 123.8780364990234 109.945182800293 117.8248825073242 118.2019119262695 109.9394149780273 124.0844955444336 C 101.3694610595703 130.4777069091797 91.18595886230469 133.8569641113281 80.4898681640625 133.8569641113281 C 53.2802619934082 133.8569641113281 31.14363098144531 111.720344543457 31.14363098144531 84.51073455810547 C 31.14363098144531 73.81466674804688 34.52291488647461 63.63116836547852 40.91613006591797 55.0611457824707 C 46.79860687255859 47.17574310302734 55.05536270141602 41.12253952026367 64.28728485107422 37.89717483520508 L 64.28728485107422 7.684926509857178 C 49.41420364379883 10.78873729705811 35.86992263793945 18.13077545166016 24.99126243591309 29.01253700256348 C 10.16510963439941 43.83449172973633 2.000000953674316 63.54414367675781 2.000000953674316 84.51073455810547 C 2.000000953674316 105.4773178100586 10.16510963439941 125.1869735717773 24.99165344238281 140.0093383789062 C 39.81365203857422 154.8354949951172 59.5233039855957 163.0006256103516 80.4898681640625 163.0006256103516 M 156.1704254150391 63.56968688964844 C 152.5923004150391 50.57327270507812 145.650390625 38.67012786865234 135.9925384521484 29.0123405456543 C 126.3315124511719 19.3513069152832 114.4253768920898 12.40757942199707 101.4266510009766 8.829189300537109 L 101.4266510009766 39.82831192016602 C 111.8914184570312 44.74434661865234 120.2532653808594 53.10543441772461 125.1703186035156 63.56968688964844 L 156.1704254150391 63.56968688964844 M 80.4898681640625 165.0006256103516 C 58.98897933959961 165.0006256103516 38.77700042724609 156.6273803710938 23.57723999023438 141.4233551025391 C 8.373218536376953 126.2236022949219 9.977920853998512e-07 106.0116424560547 9.977920853998512e-07 84.51073455810547 C 9.977920853998512e-07 63.00984191894531 8.373218536376953 42.7978630065918 23.57723999023438 27.59812355041504 C 35.31708908081055 15.85494995117188 50.08600234985352 8.131471633911133 66.28728485107422 5.262688636779785 L 66.28728485107422 39.34003829956055 C 56.88943481445312 42.30116653442383 48.44958877563477 48.30740737915039 42.51919555664062 56.25703811645508 C 36.38565444946289 64.47897338867188 33.14363098144531 74.24890899658203 33.14363098144531 84.51073455810547 C 33.14363098144531 110.6175155639648 54.38308715820312 131.8569641113281 80.4898681640625 131.8569641113281 C 90.75169372558594 131.8569641113281 100.5216293334961 128.6149749755859 108.743522644043 122.4814300537109 C 116.691520690918 116.5521850585938 122.6993942260742 108.1111679077148 125.6604537963867 98.71334075927734 L 159.7379150390625 98.71334075927734 C 156.86865234375 114.9181671142578 149.1450500488281 129.6851196289062 137.4067687988281 141.4233551025391 C 122.2027435302734 156.6273803710938 101.9892425537109 165.0006256103516 80.4898681640625 165.0006256103516 Z M 158.7507476806641 65.56968688964844 L 123.8819351196289 65.56968688964844 C 119.0771331787109 54.60418701171875 110.3936080932617 45.92099380493164 99.42665100097656 41.11681747436523 L 99.42665100097656 6.248971462249756 C 113.7482833862305 9.686905860900879 126.8795471191406 17.0709056854248 137.4067687988281 27.59812355041504 C 147.9318695068359 38.12318801879883 155.3120422363281 51.25153732299805 158.7492980957031 65.56386566162109 L 158.7507476806641 65.56968688964844 Z" stroke="none" fill="#f4f6f9"/>
      </g>
    </g>
  </g>
</svg>
